<?xml version="1.0" standalone="no"?>
<!DOCTYPE svg PUBLIC "-//W3C//DTD SVG 20010904//EN"
 "http://www.w3.org/TR/2001/REC-SVG-20010904/DTD/svg10.dtd">
<svg version="1.0" xmlns="http://www.w3.org/2000/svg"
 width="512.000000pt" height="512.000000pt" viewBox="0 0 512.000000 512.000000"
 preserveAspectRatio="xMidYMid meet">
<metadata>
Created by potrace 1.14, written by Peter Selinger 2001-2017
</metadata>
<g transform="translate(0.000000,512.000000) scale(0.100000,-0.100000)"
fill="#000000" stroke="none">
<path d="M2335 5109 c-219 -20 -453 -73 -660 -151 -234 -87 -315 -136 -345
-207 -10 -25 -16 -30 -36 -25 -50 13 -122 -16 -223 -90 -483 -349 -827 -849
-981 -1429 -40 -152 -72 -352 -73 -467 -2 -84 1 -100 22 -137 l25 -43 -25 -42
c-21 -38 -24 -54 -22 -138 2 -177 58 -451 139 -682 45 -128 164 -374 239 -493
178 -283 408 -528 676 -721 100 -73 173 -103 222 -90 19 4 26 -2 46 -39 30
-56 72 -85 213 -145 223 -94 464 -160 708 -192 122 -16 488 -16 610 0 233 31
437 84 650 168 172 69 226 100 263 153 29 42 32 52 32 126 l0 80 -552 956
c-304 525 -555 963 -559 972 -6 16 24 17 395 17 l401 0 0 -228 c0 -267 8 -308
72 -378 92 -100 254 -111 361 -23 60 49 89 109 94 192 2 40 6 82 9 94 5 26 36
38 63 23 19 -10 20 -23 23 -323 3 -344 3 -340 69 -405 99 -96 266 -74 336 46
l28 47 5 475 5 475 206 5 c203 5 206 5 247 32 51 34 91 101 98 164 7 62 -19
274 -52 424 -116 525 -419 1037 -818 1379 -213 182 -332 252 -405 238 -22 -5
-29 -1 -40 24 -30 68 -92 107 -307 194 -336 136 -781 199 -1159 164z m575
-164 c212 -31 463 -105 645 -189 43 -20 87 -44 97 -53 30 -27 22 -71 -29 -159
l-47 -81 -90 60 c-146 95 -214 119 -406 137 -63 6 -182 28 -265 48 -203 49
-297 49 -480 3 -71 -18 -200 -41 -286 -51 -193 -23 -266 -47 -396 -132 l-99
-65 -47 82 c-68 119 -64 147 29 193 209 105 538 196 805 222 128 12 441 4 569
-15z m-130 -385 c63 -16 178 -37 255 -45 189 -21 251 -41 366 -117 51 -35 94
-66 94 -70 0 -3 -209 -369 -465 -811 l-464 -805 -57 96 c-31 54 -113 196 -183
317 -70 121 -136 228 -148 238 -11 9 -30 17 -43 17 -34 0 -75 -37 -75 -69 0
-17 69 -146 185 -346 l184 -320 -931 -3 c-512 -1 -933 0 -936 2 -2 3 -4 69 -5
148 -1 158 -4 146 81 339 28 63 67 170 87 239 53 186 79 231 203 362 60 62
147 165 193 228 47 63 106 133 131 156 39 34 224 135 246 134 4 -1 95 -154
202 -341 107 -187 203 -347 213 -356 23 -22 72 -21 97 2 41 37 30 63 -179 425
-109 190 -197 349 -194 353 14 24 193 129 247 146 34 11 116 24 182 31 96 9
241 38 429 84 43 11 175 -5 285 -34z m-1473 5 c20 -14 119 -173 112 -179 -2
-2 -42 -23 -89 -46 -156 -78 -218 -133 -332 -293 -38 -53 -115 -146 -171 -205
-159 -166 -182 -205 -244 -421 -20 -69 -61 -184 -93 -256 -81 -184 -85 -205
-84 -378 l2 -148 -105 3 c-101 3 -107 4 -125 29 -19 25 -19 33 -9 135 49 459
237 910 530 1274 137 170 327 346 497 461 62 43 79 46 111 24z m2627 -24 c313
-212 593 -532 771 -883 143 -279 223 -546 256 -856 12 -112 12 -112 -11 -137
-22 -24 -30 -25 -127 -25 l-104 0 7 113 c10 173 -1 218 -114 482 -17 39 -47
126 -67 195 -56 194 -88 249 -225 395 -65 68 -150 170 -190 226 -107 149 -172
208 -304 275 -61 31 -112 58 -114 59 -8 7 91 166 111 180 32 22 49 19 111 -24z
m-198 -337 c119 -59 168 -102 273 -244 46 -63 132 -165 190 -226 58 -60 118
-132 133 -160 14 -27 47 -118 72 -202 26 -85 69 -203 96 -263 70 -152 83 -217
75 -355 l-7 -112 -56 -4 c-45 -4 -60 -10 -79 -32 l-23 -27 0 -501 c0 -501 0
-502 -22 -525 -29 -31 -71 -30 -97 3 -20 26 -21 38 -21 323 0 288 -1 298 -22
341 -14 26 -41 57 -66 75 -87 60 -215 30 -269 -63 -20 -34 -27 -63 -32 -131
-6 -93 -15 -112 -62 -137 -46 -23 -94 -18 -131 15 l-33 29 0 239 0 238 298 0
299 0 19 24 c24 30 24 72 0 102 l-19 24 -775 5 -776 5 162 281 c634 1102 763
1323 770 1324 5 0 51 -21 103 -46z m-1549 -1723 l242 -6 -459 -795 c-253 -437
-461 -799 -463 -805 -6 -15 -211 90 -259 132 -23 21 -80 90 -127 153 -46 63
-133 166 -193 228 -124 131 -150 176 -203 362 -20 69 -59 176 -87 239 -85 193
-82 182 -81 337 0 78 4 147 7 153 8 12 1171 14 1623 2z m-1781 -148 c-1 -173
4 -194 84 -378 32 -71 73 -187 93 -256 62 -216 85 -256 242 -419 55 -58 133
-150 172 -205 115 -162 177 -217 333 -295 47 -23 87 -44 89 -46 8 -7 -93 -166
-115 -181 -35 -22 -59 -12 -170 71 -310 231 -554 524 -728 877 -120 242 -207
536 -235 801 -14 126 -14 121 10 152 20 25 24 26 124 26 l103 0 -2 -147z
m2609 -703 c246 -426 456 -789 466 -807 l20 -32 -72 -51 c-136 -95 -182 -109
-443 -139 -54 -6 -153 -26 -220 -43 -160 -42 -239 -42 -401 -1 -193 50 -199
50 -236 14 -25 -25 -30 -37 -25 -59 11 -44 36 -57 177 -90 267 -64 305 -65
519 -11 69 17 195 39 281 49 193 23 266 47 396 132 l99 65 47 -81 c51 -88 59
-132 29 -159 -49 -45 -301 -142 -497 -192 -213 -54 -340 -69 -590 -69 -244 0
-361 13 -574 65 -193 47 -462 150 -513 196 -29 26 -21 69 29 158 l47 82 102
-67 c156 -101 220 -113 252 -47 23 48 5 77 -76 119 -85 43 -198 121 -195 134
1 6 194 343 429 749 235 407 443 768 463 802 20 34 36 61 37 60 1 -1 203 -351
449 -777z"/>
<path d="M2185 4487 c-68 -23 -119 -54 -164 -98 -221 -221 -77 -607 234 -627
95 -6 162 11 234 59 105 70 163 180 163 309 0 100 -28 173 -93 245 -71 77
-156 117 -257 122 -46 2 -93 -2 -117 -10z m181 -154 c14 -5 16 -17 11 -70 -9
-114 -74 -211 -171 -254 -75 -32 -88 -29 -114 21 -46 90 -15 225 63 276 62 40
148 52 211 27z"/>
<path d="M3012 4417 c-131 -48 -188 -207 -116 -324 43 -70 110 -108 188 -108
196 2 297 224 168 367 -64 71 -155 95 -240 65z m123 -162 c39 -38 27 -95 -22
-112 -78 -28 -137 75 -70 122 31 22 65 18 92 -10z"/>
<path d="M1372 4049 c-61 -12 -110 -45 -143 -97 -94 -149 12 -343 188 -342
122 1 223 105 223 230 0 85 -83 189 -163 205 -18 4 -39 8 -47 10 -8 1 -34 -1
-58 -6z m97 -175 c12 -15 21 -35 21 -46 0 -27 -45 -68 -75 -68 -30 0 -75 41
-75 68 0 35 38 72 75 72 24 0 39 -7 54 -26z"/>
<path d="M2496 3596 c-168 -63 -207 -272 -71 -384 91 -75 210 -68 295 18 86
85 93 204 18 295 -57 69 -163 100 -242 71z m124 -162 c7 -7 14 -30 14 -50 0
-81 -106 -102 -135 -27 -27 72 65 132 121 77z"/>
<path d="M1548 3477 c-103 -39 -182 -110 -227 -206 -22 -48 -26 -69 -26 -151
0 -82 4 -103 27 -152 79 -169 277 -257 449 -199 319 106 350 536 49 687 -45
23 -71 29 -145 31 -59 2 -103 -1 -127 -10z m199 -163 c35 -46 -15 -193 -89
-259 -47 -43 -119 -78 -150 -73 -53 8 -84 162 -46 233 23 44 67 85 113 107 53
25 151 21 172 -8z"/>
<path d="M803 3129 c-78 -38 -123 -111 -123 -199 0 -127 94 -222 220 -222 127
0 220 95 220 224 0 160 -174 268 -317 197z m147 -149 c11 -11 20 -33 20 -50 0
-17 -9 -39 -20 -50 -43 -43 -120 -11 -120 50 0 38 32 70 70 70 17 0 39 -9 50
-20z"/>
<path d="M3650 3965 c-82 -37 -130 -112 -130 -202 1 -127 92 -223 213 -223 95
0 167 45 204 128 48 103 16 217 -78 279 -52 34 -153 43 -209 18z m140 -155
c42 -42 8 -120 -52 -120 -58 0 -91 78 -51 122 22 24 77 24 103 -2z"/>
<path d="M3859 3447 c-69 -29 -107 -55 -149 -104 -145 -165 -106 -432 80 -553
186 -119 424 -56 531 142 33 60 34 68 34 168 0 127 -17 171 -96 255 -75 80
-140 108 -253 112 -78 3 -99 0 -147 -20z m216 -147 c39 -32 -4 -182 -73 -254
-39 -41 -122 -86 -159 -86 -26 0 -57 52 -68 112 -16 85 47 193 135 233 42 18
140 16 165 -5z"/>
<path d="M3185 3200 c-148 -46 -194 -264 -79 -372 89 -83 241 -76 321 15 88
100 65 259 -48 334 -45 30 -137 41 -194 23z m125 -160 c11 -11 20 -33 20 -50
0 -17 -9 -39 -20 -50 -11 -11 -33 -20 -50 -20 -17 0 -39 9 -50 20 -11 11 -20
33 -20 50 0 17 9 39 20 50 11 11 33 20 50 20 17 0 39 -9 50 -20z"/>
<path d="M1705 2441 c-102 -26 -175 -117 -175 -217 0 -118 106 -224 224 -224
169 0 279 193 191 336 -51 81 -155 127 -240 105z m87 -161 c33 -25 39 -49 22
-88 -34 -81 -157 -27 -128 56 9 25 45 52 70 52 6 0 23 -9 36 -20z"/>
<path d="M888 2326 c-53 -19 -83 -40 -111 -78 -67 -91 -62 -201 15 -284 98
-106 263 -93 344 28 54 79 51 177 -5 257 -49 69 -166 106 -243 77z m104 -156
c32 -25 39 -49 23 -88 -25 -58 -115 -49 -131 14 -8 33 10 72 38 84 34 13 43
12 70 -10z"/>
<path d="M1291 1940 c-167 -61 -273 -242 -241 -410 23 -120 95 -216 205 -274
56 -29 67 -31 160 -31 89 0 106 3 157 28 79 39 143 104 181 185 28 59 32 77
32 152 0 75 -4 93 -32 152 -38 81 -103 147 -181 184 -78 37 -202 44 -281 14z
m183 -141 l39 -11 -5 -66 c-8 -110 -66 -200 -160 -246 -78 -39 -102 -35 -128
19 -43 90 -12 221 65 271 62 40 123 51 189 33z"/>
<path d="M2492 2027 c-128 -47 -187 -203 -119 -319 91 -156 308 -149 390 11
43 87 33 172 -31 243 -64 71 -155 95 -240 65z m123 -162 c28 -27 30 -42 14
-79 -24 -52 -107 -50 -128 3 -32 75 57 134 114 76z"/>
<path d="M2229 1472 c-114 -38 -199 -123 -238 -239 -26 -78 -27 -143 -1 -224
84 -270 426 -348 621 -142 77 81 94 127 94 253 0 100 -1 108 -34 168 -67 122
-173 191 -309 198 -57 3 -91 -1 -133 -14z m193 -153 c18 -10 20 -17 14 -70
-11 -112 -87 -219 -180 -254 -61 -24 -85 -17 -109 29 -39 74 -23 179 37 244
57 63 170 87 238 51z"/>
<path d="M2954 1172 c-22 -11 -56 -38 -76 -62 -94 -109 -58 -273 76 -342 60
-31 160 -23 218 17 55 38 98 120 98 185 0 65 -43 147 -98 185 -56 38 -155 46
-218 17z m145 -158 c12 -15 21 -34 21 -44 0 -10 -9 -29 -21 -44 -39 -50 -122
-22 -122 42 0 69 80 99 122 46z"/>
</g>
</svg>
